<svg xmlns="http://www.w3.org/2000/svg" width="350" height="160" viewBox="0 0 350 160">
  <title></title><defs>
    <clipPath id="clip-path">
      <path d="m163.24 90.73 11.07 20.21a.86.86 0 0 1-.31 1.17l-11.37 6.23a7.62 7.62 0 0 1-10.2-3.32l-8.16-13.38a1.85 1.85 0 0 1 .84-2.58l17-8.7a.86.86 0 0 1 1.13.37Z" class="cls-1"/>
    </clipPath>
    <clipPath id="clip-path-2">
      <path d="m172.56 91.81 5.34 13.53a1.55 1.55 0 0 1-.62 2.09l-14.61 8a1.55 1.55 0 0 1-2.1-.61l-10.74-19.6a1.55 1.55 0 0 1 .62-2.09l7.49-4.13c4.66-2.53 9.88-.87 14.62 2.81Z" class="cls-1"/>
    </clipPath>
    <style>
      .cls-1,.cls-11,.cls-2,.cls-5,.cls-8{fill:none}.cls-2{stroke:#eeeeef;stroke-width:2px}.cls-11,.cls-2{stroke-miterlimit:10}.cls-3{fill:#eeeeef}.cls-4{fill:#dbdbde}.cls-5{stroke:#994634}.cls-5,.cls-8{stroke-linecap:round}.cls-5{stroke-linejoin:round;stroke-width:27px}.cls-6{fill:#2a283a}.cls-7{fill:#f6c288}.cls-8{stroke:#000}.cls-11,.cls-8{stroke-width:1.5px}.cls-10{fill:#fff}.cls-11{stroke:#fff}.cls-12{fill:#f4c38e}.cls-14{fill:#994634}.cls-15{fill:#a7735b}.cls-17{fill:#de4243}
    </style>
  </defs>
  <path d="M291.71 122.32V54.1" class="cls-2"/>
  <path d="M291.71 77.41a6.22 6.22 0 0 1-6.2-6.2V42.27a6.22 6.22 0 0 1 6.2-6.2 6.21 6.21 0 0 1 6.19 6.2v8.52l-2.4 2.39 2.4 2.53v15.5a6.21 6.21 0 0 1-6.19 6.2Z" class="cls-3"/>
  <path d="m291.71 122.32 18.8-65.57" class="cls-2"/>
  <path d="M304.09 79.15a6.22 6.22 0 0 1-4.25-7.67l8-27.82a6.21 6.21 0 0 1 7.66-4.24 6.21 6.21 0 0 1 4.25 7.66L315 63.75l-3 1.64 1.62 3.08-1.91 6.43a6.21 6.21 0 0 1-7.62 4.25Z" class="cls-3"/>
  <path d="m291.71 122.32-18.8-65.57" class="cls-2"/>
  <path d="M279.33 79.15a6.22 6.22 0 0 1-7.67-4.25l-8-27.82a6.21 6.21 0 0 1 4.25-7.66 6.21 6.21 0 0 1 7.66 4.24l3.76 12.47-1.65 3 3 1.76 2.86 10.62a6.22 6.22 0 0 1-4.21 7.64Z" class="cls-3"/>
  <circle cx="291.71" cy="113.69" r="23.89" class="cls-4"/>
  <path d="m291.71 115.54 18.08-31.32h-36.17l18.09 31.32z" class="cls-4"/>
  <path d="m159 89.02-40.95 47.07M216.62 92.38l12.44 28.55-15.99 3.81" class="cls-5"/>
  <path d="M178 9s-22.6-2.33-22.1 22.5c.34 16.81-4.56 16.39-2.28 30.92h18.68v-50Z" class="cls-6"/>
  <path d="M181.48 9H178a16.54 16.54 0 0 0-16.55 16.56l.12 24.78a14.2 14.2 0 0 0 14.24 14h22.38l-.17-39A16.52 16.52 0 0 0 181.48 9Z" class="cls-7"/>
  <path d="M187 84.4a11.17 11.17 0 0 1-11.17-11.17V45.47h22.29l.05 27.73A11.18 11.18 0 0 1 187 84.4Z" class="cls-7"/>
  <circle cx="177.24" cy="38.01" r="1.37"/>
  <circle cx="165.34" cy="38.29" r="1.38"/>
  <path d="M167.83 34.73a5.53 5.53 0 0 0-5 .2M180.54 34.56a6 6 0 0 0-5.41 0M172.06 55.68s6.61-.13 9.07-3.75" class="cls-8"/>
  <path fill="none" stroke="#000" stroke-linecap="square" stroke-width="1.5" d="M176.69 65.15h4.67"/>
  <ellipse cx="198.1" cy="40.3" class="cls-7" rx="6.73" ry="6.71"/>
  <path d="m195 40.78 5.18-4.26" class="cls-7"/>
  <circle cx="199.58" cy="47" r="2.79" class="cls-10"/>
  <path d="M169.41 41.21a25.87 25.87 0 0 1-2.75 4.93 1.29 1.29 0 0 0 .68 2.07 18.35 18.35 0 0 0 3.92.21" class="cls-8"/>
  <path d="M159 29.55h5.19l2.49-5.19.62 5h15.57l6.22-8.93L186 8.79l-9.86.21c-1 .29-15.28.15-17.14 20.55Z" class="cls-6"/>
  <ellipse cx="179.03" cy="36.45" class="cls-11" rx="6.96" ry="5.49" transform="rotate(-21.24 179.0474 36.4432)"/>
  <ellipse cx="163.66" cy="36.62" class="cls-11" rx="5.49" ry="6.5" transform="rotate(-68.76 163.6567 36.6151)"/>
  <path d="M185.56 34.6h5.72" class="cls-11"/>
  <path d="M186 8.79C203.2 9.62 202.86 27 210.26 42c6.07 12.34 1.51 22.2 1.51 22.2H186.6s-1.84-14 1-21a18.92 18.92 0 0 0-2.27-18.38Z" class="cls-6"/>
  <rect width="18.48" height="6.51" x="74.03" y="97.19" class="cls-12" rx="3.17"/>
  <path fill="#f2f2f2" d="M138.54 129.48C125 117.48 123.1 84.2 123.1 84.2H74.48s.33 30.9 13 45.28Z"/>
  <rect width="18.48" height="6.51" x="71.98" y="103.37" class="cls-12" rx="3.17"/>
  <rect width="21.72" height="6.51" x="71.05" y="109.88" class="cls-12" rx="3.17"/>
  <rect width="18.93" height="6.51" x="72.45" y="116.39" class="cls-12" rx="3.17"/>
  <rect width="14.56" height="6.51" x="74.63" y="122.9" class="cls-12" rx="2.92"/>
  <path d="M172.61 69.59h28.57a31.24 31.24 0 0 1 31.24 31.24v27.47a1.12 1.12 0 0 1-1.12 1.12h-88.81a1.12 1.12 0 0 1-1.12-1.12v-27.47a31.24 31.24 0 0 1 31.24-31.24Z" class="cls-3"/>
  <path d="M158.56 92.09h55.26v1.67h-55.26zM158.56 100.19h55.26v1.67h-55.26zM158.56 108.28h55.26v1.67h-55.26zM158.56 116.37h55.26v1.67h-55.26zM158.56 124.47h55.26v1.67h-55.26z" class="cls-4"/>
  <path d="M171.05 69.63c-16.46.82-30.79 15.06-30.79 31.71v27a1.12 1.12 0 0 0 1.12 1.11h30.08a352.29 352.29 0 0 0-.41-59.82ZM232.43 128.3v-27.47a31.34 31.34 0 0 0-29-31.15c0 .18-4.61 23.9-4 59.73h31.92a1.12 1.12 0 0 0 1.08-1.11Z" class="cls-14"/>
  <path d="m154.47 82.92 11.28 5.17-6.75 7.39L172.06 117l.13-.3a340 340 0 0 0-1.14-47h-.54c-2.38.21-12.08 1.88-16.04 13.22ZM215.14 95.48l-6.75-7.39 11.28-5.17a19.09 19.09 0 0 0-15.23-13.14c-.34 0-.68-.08-1-.1 0 .16-3.54 18.36-4 46.94Z" class="cls-15"/>
  <path d="m149.45 129.41-1.68-30.72" class="cls-8"/>
  <path fill="none" stroke="#f4c38e" stroke-linecap="round" stroke-linejoin="round" stroke-width="27" d="m165.41 103.24 40.26 15.77"/>
  <path d="m173.66 92 4.21 13.26a1.56 1.56 0 0 1-.59 2.13l-14.61 8a1.57 1.57 0 0 1-2.12-.66l-11.06-20.14a1.57 1.57 0 0 1 .59-2.14l6.73-3.69c5.73-2.88 11.08.24 16.85 3.24Z" class="cls-12"/>
  <path d="m163.24 90.73 11.07 20.21a.86.86 0 0 1-.31 1.17l-11.37 6.23a7.62 7.62 0 0 1-10.2-3.32l-8.16-13.38a1.85 1.85 0 0 1 .84-2.58l17-8.7a.86.86 0 0 1 1.13.37Z" class="cls-12"/>
  <path d="M135.42 57.68c-5 2.45-6 10.52-2.27 18s10.73 11.59 15.69 9.14 6-10.52 2.28-18-10.73-11.59-15.7-9.14Zm12.48 25.24c-3.84 1.9-9.71-1.85-12.84-8.17s-2.52-13.26 1.31-15.16 9.71 1.85 12.83 8.18 2.53 13.23-1.3 15.15Z" class="cls-17"/>
  <path d="m147.101 84.2564 2.349-1.1605 5.2263 10.5795-2.349 1.1604z" class="cls-17"/>
  <path d="M147.9 82.92c-3.84 1.9-9.71-1.85-12.84-8.17s-2.52-13.26 1.31-15.16 9.71 1.85 12.83 8.18 2.53 13.23-1.3 15.15Z" class="cls-3"/>
  <g clip-path="url(#clip-path)">
    <path d="m143.71 104.91 9.72-4.72M146.39 110.11l9.72-4.72M149.21 115.29l9.71-4.72M164.64 118.42s-3.42-2.15-.25-4.51" class="cls-8"/>
    <path d="M164.39 113.91a6.86 6.86 0 0 1-4 2.14" class="cls-8"/>
  </g>
  <g clip-path="url(#clip-path-2)">
    <path d="m143.04 99.17 13.03-6.68" class="cls-8"/>
  </g>
  <path fill="none" stroke="#994634" stroke-linejoin="round" stroke-width="27" d="m190.24 112.97 34.45 13.5"/>
  <g>
    <path d="M15.07 129.22H326.4v22.34H15.07z" class="cls-10"/>
    <path fill="none" stroke="#b6b5bc" stroke-linecap="round" stroke-miterlimit="10" stroke-width="1.5" d="M15.06 129.22h311.35"/>
  </g>
</svg>
